<svg xmlns="http://www.w3.org/2000/svg" width="1094.85" height="1216.5" viewBox="0 0 1094.85 1216.5">
  <g id="Group_50" data-name="Group 50" transform="translate(1606 -9208)">
    <path id="calendar_today_24dp_FFFFFF_FILL0_wght400_GRAD0_opsz24" d="M241.65,336.5q-50.181,0-85.915-35.735T120,214.85V-636.7q0-50.181,35.735-85.915T241.65-758.35h60.825V-880h121.65v121.65h486.6V-880h121.65v121.65H1093.2q50.181,0,85.915,35.735T1214.85-636.7V214.85q0,50.181-35.735,85.915T1093.2,336.5Zm0-121.65H1093.2V-393.4H241.65Zm0-729.9H1093.2V-636.7H241.65Zm0,0v0Z" transform="translate(-1726 10088)" fill="#28597c"/>
    <path id="Path_11" data-name="Path 11" d="M-90.19-53.65H-5.22V-298.12q0-14.21.87-29.87l-60.32,50.46a21.392,21.392,0,0,1-7.685,4.35,26.968,26.968,0,0,1-7.685,1.16,22.768,22.768,0,0,1-10.585-2.465,19.748,19.748,0,0,1-7.105-5.655l-22.62-31.03L7.54-419.92H66.41V-53.65h75.4V0h-232Z" transform="translate(-1059 10200)" fill="#28597c"/>
  </g>
</svg>
