<svg xmlns="http://www.w3.org/2000/svg" viewBox="0 0 1094.85 1216.5">
  <g id="Group_40" data-name="Group 40" transform="translate(1606 -9208)">
    <path id="calendar_today_24dp_FFFFFF_FILL0_wght400_GRAD0_opsz24" d="M241.65,336.5q-50.181,0-85.915-35.735T120,214.85V-636.7q0-50.181,35.735-85.915T241.65-758.35h60.825V-880h121.65v121.65h486.6V-880h121.65v121.65H1093.2q50.181,0,85.915,35.735T1214.85-636.7V214.85q0,50.181-35.735,85.915T1093.2,336.5Zm0-121.65H1093.2V-393.4H241.65Zm0-729.9H1093.2V-636.7H241.65Zm0,0v0Z" transform="translate(-1726 10088)" fill="#28597c"/>
    <path id="Path_6" data-name="Path 6" d="M174.58-423.98q29,0,53.07,8.555t41.18,24.215a109.609,109.609,0,0,1,26.68,37.7q9.57,22.04,9.57,49.01a130.587,130.587,0,0,1-6.815,42.92,178.452,178.452,0,0,1-18.27,37.7,253.838,253.838,0,0,1-26.825,34.8q-15.37,16.82-32.19,34.22L126.44-58.29a229.03,229.03,0,0,1,27.26-6.235A158.708,158.708,0,0,1,179.22-66.7H286.81q11.6,0,18.415,6.525T312.04-42.92V0H24.36V-23.78A41.534,41.534,0,0,1,27.4-38.86a42.068,42.068,0,0,1,9.715-14.5l127.31-127.6q15.95-16.24,28.565-31.03a209.381,209.381,0,0,0,21.17-29.29,133.764,133.764,0,0,0,13.05-29.435,108.6,108.6,0,0,0,4.495-31.465q0-15.08-4.35-26.535A51.982,51.982,0,0,0,214.89-348,52.343,52.343,0,0,0,195.6-359.745a75.482,75.482,0,0,0-25.085-3.915q-25.81,0-42.485,13.05T104.69-315.52q-3.19,11.02-9.57,15.805T78.88-294.93a58.576,58.576,0,0,1-9.57-.87l-37.7-6.67q4.35-30.16,16.82-52.925a126.9,126.9,0,0,1,31.175-37.99,129.129,129.129,0,0,1,42.92-22.91A171.164,171.164,0,0,1,174.58-423.98ZM530.7-261.87a139.619,139.619,0,0,1,46.255,7.83A111.931,111.931,0,0,1,616.54-230.4q17.11,15.805,27.55,39.295t10.44,54.81A141.02,141.02,0,0,1,643.8-81.345,135.649,135.649,0,0,1,613.64-36.54Q594.21-17.4,566.8-6.38T506.34,4.64q-33.64,0-60.32-10.73A131.235,131.235,0,0,1,400.49-36.1a129.594,129.594,0,0,1-28.855-46.4Q361.63-109.62,361.63-142.68q0-29.58,12.035-60.755T410.93-268.25L510.98-402.52q5.22-6.96,15.225-11.89a51.52,51.52,0,0,1,23.055-4.93h63.8L488.65-267.09q-4.06,4.93-7.685,9.28t-7.105,8.99a126.311,126.311,0,0,1,26.245-9.57A127.212,127.212,0,0,1,530.7-261.87ZM430.36-131.66A99.965,99.965,0,0,0,435.145-99.9,66.253,66.253,0,0,0,449.355-75.4,64.415,64.415,0,0,0,472.7-59.6q13.92,5.655,32.19,5.655a83.232,83.232,0,0,0,31.465-5.8,72.075,72.075,0,0,0,24.65-16.24A75.491,75.491,0,0,0,577.1-100.485a79.473,79.473,0,0,0,5.8-30.6q0-17.98-5.51-32.335a67.79,67.79,0,0,0-15.66-24.36A67.208,67.208,0,0,0,537.37-203a90.221,90.221,0,0,0-31.32-5.22,79.949,79.949,0,0,0-31.03,5.8,71.013,71.013,0,0,0-23.925,16.1,70.615,70.615,0,0,0-15.37,24.36A84.319,84.319,0,0,0,430.36-131.66Z" transform="translate(-1395 10200)" fill="#28597c"/>
  </g>
</svg>
