<svg xmlns="http://www.w3.org/2000/svg" width="1094.85" height="1216.5" viewBox="0 0 1094.85 1216.5">
  <g id="Group_42" data-name="Group 42" transform="translate(1606 -9208)">
    <path id="calendar_today_24dp_FFFFFF_FILL0_wght400_GRAD0_opsz24" d="M241.65,336.5q-50.181,0-85.915-35.735T120,214.85V-636.7q0-50.181,35.735-85.915T241.65-758.35h60.825V-880h121.65v121.65h486.6V-880h121.65v121.65H1093.2q50.181,0,85.915,35.735T1214.85-636.7V214.85q0,50.181-35.735,85.915T1093.2,336.5Zm0-121.65H1093.2V-393.4H241.65Zm0-729.9H1093.2V-636.7H241.65Zm0,0v0Z" transform="translate(-1726 10088)" fill="#28597c"/>
    <path id="Path_7" data-name="Path 7" d="M-161.82-423.98q29,0,53.07,8.555t41.18,24.215a109.609,109.609,0,0,1,26.68,37.7q9.57,22.04,9.57,49.01a130.587,130.587,0,0,1-6.815,42.92,178.454,178.454,0,0,1-18.27,37.7,253.839,253.839,0,0,1-26.825,34.8q-15.37,16.82-32.19,34.22l-94.54,96.57a229.03,229.03,0,0,1,27.26-6.235A158.708,158.708,0,0,1-157.18-66.7H-49.59q11.6,0,18.415,6.525T-24.36-42.92V0H-312.04V-23.78a41.534,41.534,0,0,1,3.045-15.08,42.068,42.068,0,0,1,9.715-14.5l127.31-127.6q15.95-16.24,28.565-31.03a209.382,209.382,0,0,0,21.17-29.29,133.764,133.764,0,0,0,13.05-29.435,108.6,108.6,0,0,0,4.495-31.465q0-15.08-4.35-26.535A51.981,51.981,0,0,0-121.51-348a52.343,52.343,0,0,0-19.285-11.745,75.482,75.482,0,0,0-25.085-3.915q-25.81,0-42.485,13.05t-23.345,35.09q-3.19,11.02-9.57,15.805t-16.24,4.785a58.577,58.577,0,0,1-9.57-.87l-37.7-6.67q4.35-30.16,16.82-52.925a126.9,126.9,0,0,1,31.175-37.99,129.129,129.129,0,0,1,42.92-22.91A171.164,171.164,0,0,1-161.82-423.98Zm479.66,4.64v31.03q0,13.92-3.045,22.475a130.376,130.376,0,0,1-5.945,14.355L150.22-24.36A49.087,49.087,0,0,1,136.3-7.105Q127.31,0,111.94,0H60.03l162.4-320.45a167.086,167.086,0,0,1,22.62-33.93H44.37a15.873,15.873,0,0,1-11.6-4.93,15.873,15.873,0,0,1-4.93-11.6v-48.43Z" transform="translate(-1059 10200)" fill="#28597c"/>
  </g>
</svg>
