<svg xmlns="http://www.w3.org/2000/svg" width="1094.85" height="1216.5" viewBox="0 0 1094.85 1216.5">
  <g id="Group_44" data-name="Group 44" transform="translate(1606 -9208)">
    <path id="calendar_today_24dp_FFFFFF_FILL0_wght400_GRAD0_opsz24" d="M241.65,336.5q-50.181,0-85.915-35.735T120,214.85V-636.7q0-50.181,35.735-85.915T241.65-758.35h60.825V-880h121.65v121.65h486.6V-880h121.65v121.65H1093.2q50.181,0,85.915,35.735T1214.85-636.7V214.85q0,50.181-35.735,85.915T1093.2,336.5Zm0-121.65H1093.2V-393.4H241.65Zm0-729.9H1093.2V-636.7H241.65Zm0,0v0Z" transform="translate(-1726 10088)" fill="#28597c"/>
    <path id="Path_8" data-name="Path 8" d="M-161.82-423.98q29,0,53.07,8.555t41.18,24.215a109.609,109.609,0,0,1,26.68,37.7q9.57,22.04,9.57,49.01a130.587,130.587,0,0,1-6.815,42.92,178.454,178.454,0,0,1-18.27,37.7,253.839,253.839,0,0,1-26.825,34.8q-15.37,16.82-32.19,34.22l-94.54,96.57a229.03,229.03,0,0,1,27.26-6.235A158.708,158.708,0,0,1-157.18-66.7H-49.59q11.6,0,18.415,6.525T-24.36-42.92V0H-312.04V-23.78a41.534,41.534,0,0,1,3.045-15.08,42.068,42.068,0,0,1,9.715-14.5l127.31-127.6q15.95-16.24,28.565-31.03a209.382,209.382,0,0,0,21.17-29.29,133.764,133.764,0,0,0,13.05-29.435,108.6,108.6,0,0,0,4.495-31.465q0-15.08-4.35-26.535A51.981,51.981,0,0,0-121.51-348a52.343,52.343,0,0,0-19.285-11.745,75.482,75.482,0,0,0-25.085-3.915q-25.81,0-42.485,13.05t-23.345,35.09q-3.19,11.02-9.57,15.805t-16.24,4.785a58.577,58.577,0,0,1-9.57-.87l-37.7-6.67q4.35-30.16,16.82-52.925a126.9,126.9,0,0,1,31.175-37.99,129.129,129.129,0,0,1,42.92-22.91A171.164,171.164,0,0,1-161.82-423.98ZM168.2,4.64q-32.48,0-59.305-8.7T62.93-28.71A110.652,110.652,0,0,1,33.205-67.28Q22.62-89.9,22.62-117.74q0-37.12,18.27-62.785T97.73-218.66q-30.74-12.76-45.965-36.25T36.54-311.46a102.663,102.663,0,0,1,9.715-44.37A108.9,108.9,0,0,1,73.37-391.645q17.4-15.225,41.615-23.78T168.2-423.98q29,0,53.215,8.555t41.615,23.78a108.9,108.9,0,0,1,27.115,35.815,102.663,102.663,0,0,1,9.715,44.37q0,33.06-15.37,56.55t-45.82,36.25q38.57,12.47,56.84,38.135t18.27,62.785q0,27.84-10.585,50.46A110.652,110.652,0,0,1,273.47-28.71Q254.33-12.76,227.505-4.06T168.2,4.64Zm0-55.97q17.69,0,31.03-5.075A63.981,63.981,0,0,0,221.705-70.47,58.122,58.122,0,0,0,235.48-91.93a76.733,76.733,0,0,0,4.64-26.97q0-34.51-19.14-52.2T168.2-188.79q-33.64,0-52.78,17.69T96.28-118.9a76.733,76.733,0,0,0,4.64,26.97,58.121,58.121,0,0,0,13.775,21.46A63.98,63.98,0,0,0,137.17-56.4Q150.51-51.33,168.2-51.33Zm0-193.72q17.4,0,29.29-5.51A51.627,51.627,0,0,0,216.63-265.2a55.624,55.624,0,0,0,10.3-20.88A96.1,96.1,0,0,0,229.97-310.3a67.738,67.738,0,0,0-3.77-22.62,54.86,54.86,0,0,0-11.31-18.995,54.089,54.089,0,0,0-19.14-13.195q-11.6-4.93-27.55-4.93t-27.55,4.93a55.583,55.583,0,0,0-19.285,13.195,52.044,52.044,0,0,0-11.31,18.995,70.194,70.194,0,0,0-3.625,22.62,96.1,96.1,0,0,0,3.045,24.215A55.624,55.624,0,0,0,119.77-265.2a51.627,51.627,0,0,0,19.14,14.645Q150.8-245.05,168.2-245.05Z" transform="translate(-1059 10200)" fill="#28597c"/>
  </g>
</svg>
