<svg xmlns="http://www.w3.org/2000/svg" width="1094.85" height="1216.5" viewBox="0 0 1094.85 1216.5">
  <g id="Group_46" data-name="Group 46" transform="translate(1606 -9208)">
    <path id="calendar_today_24dp_FFFFFF_FILL0_wght400_GRAD0_opsz24" d="M241.65,336.5q-50.181,0-85.915-35.735T120,214.85V-636.7q0-50.181,35.735-85.915T241.65-758.35h60.825V-880h121.65v121.65h486.6V-880h121.65v121.65H1093.2q50.181,0,85.915,35.735T1214.85-636.7V214.85q0,50.181-35.735,85.915T1093.2,336.5Zm0-121.65H1093.2V-393.4H241.65Zm0-729.9H1093.2V-636.7H241.65Zm0,0v0Z" transform="translate(-1726 10088)" fill="#28597c"/>
    <path id="Path_9" data-name="Path 9" d="M-161.82-423.98q29,0,53.07,8.555t41.18,24.215a109.609,109.609,0,0,1,26.68,37.7q9.57,22.04,9.57,49.01a130.587,130.587,0,0,1-6.815,42.92,178.454,178.454,0,0,1-18.27,37.7,253.839,253.839,0,0,1-26.825,34.8q-15.37,16.82-32.19,34.22l-94.54,96.57a229.03,229.03,0,0,1,27.26-6.235A158.708,158.708,0,0,1-157.18-66.7H-49.59q11.6,0,18.415,6.525T-24.36-42.92V0H-312.04V-23.78a41.534,41.534,0,0,1,3.045-15.08,42.068,42.068,0,0,1,9.715-14.5l127.31-127.6q15.95-16.24,28.565-31.03a209.382,209.382,0,0,0,21.17-29.29,133.764,133.764,0,0,0,13.05-29.435,108.6,108.6,0,0,0,4.495-31.465q0-15.08-4.35-26.535A51.981,51.981,0,0,0-121.51-348a52.343,52.343,0,0,0-19.285-11.745,75.482,75.482,0,0,0-25.085-3.915q-25.81,0-42.485,13.05t-23.345,35.09q-3.19,11.02-9.57,15.805t-16.24,4.785a58.577,58.577,0,0,1-9.57-.87l-37.7-6.67q4.35-30.16,16.82-52.925a126.9,126.9,0,0,1,31.175-37.99,129.129,129.129,0,0,1,42.92-22.91A171.164,171.164,0,0,1-161.82-423.98ZM153.7-167.33a124.63,124.63,0,0,1-42.63-7.54,108.226,108.226,0,0,1-37.265-22.765,112.211,112.211,0,0,1-26.245-37.7Q37.7-257.81,37.7-287.97a133.924,133.924,0,0,1,10.44-52.78,132.578,132.578,0,0,1,29.29-43.21,137.387,137.387,0,0,1,45.24-29.29q26.39-10.73,58.29-10.73,32.19,0,57.855,10.15a126.153,126.153,0,0,1,43.79,28.42,123.884,123.884,0,0,1,27.84,43.79q9.715,25.52,9.715,55.97a195.448,195.448,0,0,1-3.335,36.83,193.193,193.193,0,0,1-9.57,33.495,231.911,231.911,0,0,1-14.935,31.32q-8.7,15.225-19.43,30.6L176.9-16.53q-4.93,6.96-14.645,11.745A49.568,49.568,0,0,1,140.07,0H74.24L204.45-162.69q4.93-6.09,9.28-11.89t8.41-11.6a115.678,115.678,0,0,1-31.9,14.065A137.206,137.206,0,0,1,153.7-167.33ZM251.43-292.9q0-17.11-5.22-30.6a62.765,62.765,0,0,0-14.79-22.765,64.88,64.88,0,0,0-22.765-14.21A81.829,81.829,0,0,0,179.8-365.4a76.393,76.393,0,0,0-29.29,5.365A63.713,63.713,0,0,0,128.325-345.1a65.972,65.972,0,0,0-14.065,22.765,81.829,81.829,0,0,0-4.93,28.855q0,35.09,18.125,53.5T178.93-221.56q17.4,0,30.885-5.51a66.008,66.008,0,0,0,22.765-15.08,63.432,63.432,0,0,0,14.065-22.62A81.088,81.088,0,0,0,251.43-292.9Z" transform="translate(-1059 10200)" fill="#28597c"/>
  </g>
</svg>
