<svg xmlns="http://www.w3.org/2000/svg" width="1094.85" height="1216.5" viewBox="0 0 1094.85 1216.5">
  <g id="Group_48" data-name="Group 48" transform="translate(1606 -9208)">
    <path id="calendar_today_24dp_FFFFFF_FILL0_wght400_GRAD0_opsz24" d="M241.65,336.5q-50.181,0-85.915-35.735T120,214.85V-636.7q0-50.181,35.735-85.915T241.65-758.35h60.825V-880h121.65v121.65h486.6V-880h121.65v121.65H1093.2q50.181,0,85.915,35.735T1214.85-636.7V214.85q0,50.181-35.735,85.915T1093.2,336.5Zm0-121.65H1093.2V-393.4H241.65Zm0-729.9H1093.2V-636.7H241.65Zm0,0v0Z" transform="translate(-1726 10088)" fill="#28597c"/>
    <path id="Path_10" data-name="Path 10" d="M-155.15-423.98q29,0,52.345,8.265t39.875,22.91A100.357,100.357,0,0,1-37.555-358.44a102.957,102.957,0,0,1,8.845,42.63q0,20.01-4.495,35.235a82.005,82.005,0,0,1-13.05,26.535,79.1,79.1,0,0,1-20.88,19.14A126.639,126.639,0,0,1-95.12-221.85q37.7,11.89,56.26,36.25t18.56,61.19q0,31.32-11.6,55.39A119.018,119.018,0,0,1-63.22-28.565,136.486,136.486,0,0,1-108.895-3.77,177.19,177.19,0,0,1-163.85,4.64q-31.61,0-55.1-7.25a119.627,119.627,0,0,1-40.89-21.46,129.6,129.6,0,0,1-29.58-34.8,234.846,234.846,0,0,1-20.88-47.56l31.61-13.05a41.6,41.6,0,0,1,16.53-3.48,28.067,28.067,0,0,1,13.485,3.19,21.707,21.707,0,0,1,9.135,9.28q5.22,10.15,11.455,20.01A81.169,81.169,0,0,0-213.15-72.935a71.075,71.075,0,0,0,20.445,12.47q11.745,4.785,27.985,4.785,18.27,0,31.9-5.945A69.289,69.289,0,0,0-110.055-77.14a63.617,63.617,0,0,0,13.63-21.315,65.681,65.681,0,0,0,4.5-23.635,109.381,109.381,0,0,0-3.19-27.4,40.618,40.618,0,0,0-13.34-21.025q-10.15-8.7-29.145-13.63t-50.9-4.93v-51.04q26.39-.29,43.79-4.93t27.695-12.905A43.724,43.724,0,0,0-102.66-277.82a76.8,76.8,0,0,0,4.06-25.52q0-29.87-16.24-45.1t-44.37-15.225q-25.52,0-42.34,13.485a70.517,70.517,0,0,0-23.49,34.655q-3.48,11.02-9.57,15.805t-15.95,4.785a60.1,60.1,0,0,1-9.86-.87l-37.7-6.67q4.35-30.16,16.82-52.925a126.9,126.9,0,0,1,31.175-37.99,129.129,129.129,0,0,1,42.92-22.91A171.164,171.164,0,0,1-155.15-423.98ZM321.9-209.67q0,54.81-11.745,95.265T277.675-47.56q-20.735,26.39-49.01,39.3A145.262,145.262,0,0,1,167.62,4.64q-32.77,0-60.755-12.905T58.29-47.56Q37.7-73.95,26.1-114.4T14.5-209.67q0-55.1,11.6-95.41t32.19-66.7q20.59-26.39,48.575-39.3t60.755-12.9a145.262,145.262,0,0,1,61.045,12.9q28.275,12.9,49.01,39.3t32.48,66.7Q321.9-264.77,321.9-209.67Zm-73.95,0q0-45.53-6.67-75.4t-17.835-47.56q-11.165-17.69-25.665-24.8a67.738,67.738,0,0,0-30.16-7.105,66.238,66.238,0,0,0-29.725,7.105q-14.355,7.1-25.375,24.8T94.975-285.07q-6.525,29.87-6.525,75.4t6.525,75.4Q101.5-104.4,112.52-86.71t25.375,24.8a66.238,66.238,0,0,0,29.725,7.1,67.738,67.738,0,0,0,30.16-7.1q14.5-7.105,25.665-24.8t17.835-47.56Q247.95-164.14,247.95-209.67Z" transform="translate(-1059 10200)" fill="#28597c"/>
  </g>
</svg>
